<svg width="136" height="98" viewBox="0 0 136 98" fill="none" xmlns="http://www.w3.org/2000/svg">
<rect x="1" width="60" height="60" fill="#4285F4"/>
<rect x="64" y="42" width="18" height="18" fill="#4285F4"/>
<rect x="85" y="42" width="18" height="18" fill="#4285F4"/>
<rect x="106" y="42" width="18" height="18" fill="#4285F4"/>
<rect x="64" y="21" width="60" height="18" fill="#4285F4"/>
<rect x="64" width="60" height="18" fill="#4285F4"/>
<path d="M3.69434 90C3.22461 90 2.88184 89.8921 2.66602 89.6763C2.4502 89.4604 2.34229 89.1177 2.34229 88.6479V67.3198C2.34229 66.9517 2.50732 66.6787 2.8374 66.501C3.16748 66.3105 3.68164 66.2153 4.37988 66.2153H5.52246C6.2207 66.2153 6.73486 66.3105 7.06494 66.501C7.39502 66.6787 7.56006 66.9517 7.56006 67.3198V85.563H15.1011C15.4565 85.563 15.7104 85.6963 15.8628 85.9629C16.0278 86.2295 16.1104 86.6548 16.1104 87.2388V88.3052C16.1104 88.9019 16.0278 89.3335 15.8628 89.6001C15.7104 89.8667 15.4565 90 15.1011 90H3.69434ZM26.0317 90.2856C23.353 90.2856 21.3091 89.4985 19.8999 87.9243C18.5034 86.3501 17.8052 84.084 17.8052 81.126C17.8052 78.1807 18.5034 75.9272 19.8999 74.3657C21.3091 72.8042 23.353 72.0234 26.0317 72.0234C28.7104 72.0234 30.7417 72.8042 32.1255 74.3657C33.522 75.9146 34.2202 78.168 34.2202 81.126C34.2202 84.084 33.522 86.3501 32.1255 87.9243C30.7417 89.4985 28.7104 90.2856 26.0317 90.2856ZM26.0317 86.3057C27.0981 86.3057 27.8789 85.874 28.374 85.0107C28.8818 84.1475 29.1357 82.8525 29.1357 81.126C29.1357 79.4121 28.8818 78.1235 28.374 77.2603C27.8789 76.397 27.0981 75.9653 26.0317 75.9653C23.9243 75.9653 22.8706 77.6855 22.8706 81.126C22.8706 82.8398 23.1245 84.1348 23.6323 85.0107C24.1528 85.874 24.9526 86.3057 26.0317 86.3057ZM44.5225 97.1792C39.1523 97.1792 36.4673 95.6177 36.4673 92.4946C36.4673 91.6187 36.7275 90.8442 37.248 90.1714C37.7812 89.4985 38.5493 88.9653 39.5522 88.5718L39.5713 88.4385C39.1143 88.1973 38.7588 87.8545 38.5049 87.4102C38.251 86.9658 38.124 86.4644 38.124 85.9058C38.124 85.3345 38.2954 84.8076 38.6382 84.3252C38.9937 83.8428 39.5015 83.4302 40.1616 83.0874C39.2983 82.605 38.6191 81.9448 38.124 81.1069C37.6416 80.269 37.4004 79.2471 37.4004 78.041C37.4004 75.9844 38.0669 74.4673 39.3999 73.4897C40.7456 72.5122 42.5103 72.0234 44.6938 72.0234C45.6079 72.0234 46.4775 72.1123 47.3027 72.29H52.749C53.1045 72.29 53.3647 72.4297 53.5298 72.709C53.6948 72.9756 53.7773 73.4009 53.7773 73.9849V74.5562C53.7773 75.6226 53.5044 76.1558 52.9585 76.1558C52.7681 76.1558 52.5078 76.1431 52.1777 76.1177C51.8604 76.0923 51.6318 76.0605 51.4922 76.0225L51.4351 76.1558C51.5874 76.3589 51.7144 76.6445 51.8159 77.0127C51.9175 77.3682 51.9683 77.7109 51.9683 78.041C51.9683 80.0596 51.3335 81.564 50.064 82.5542C48.7944 83.5317 47.1313 84.0205 45.0747 84.0205C43.6909 84.0205 42.999 84.3315 42.999 84.9536C42.999 85.2329 43.1387 85.4551 43.418 85.6201C43.6973 85.7725 44.0527 85.8931 44.4844 85.9819C44.9287 86.0708 45.5571 86.166 46.3696 86.2676C46.9536 86.3311 47.4995 86.4072 48.0073 86.4961C49.6069 86.8135 50.8828 87.334 51.835 88.0576C52.7871 88.7686 53.2632 89.8921 53.2632 91.4282C53.2632 92.5835 52.9014 93.5928 52.1777 94.4561C51.4541 95.3193 50.4321 95.9858 49.1118 96.4556C47.7915 96.938 46.2617 97.1792 44.5225 97.1792ZM44.6938 80.4214C45.4429 80.4214 46.0522 80.2246 46.522 79.8311C47.0044 79.4375 47.2456 78.8408 47.2456 78.041C47.2456 77.2412 47.0044 76.6445 46.522 76.251C46.0522 75.8447 45.4429 75.6416 44.6938 75.6416C43.9448 75.6416 43.3291 75.8447 42.8467 76.251C42.377 76.6445 42.1421 77.2412 42.1421 78.041C42.1421 78.8408 42.377 79.4375 42.8467 79.8311C43.3291 80.2246 43.9448 80.4214 44.6938 80.4214ZM44.9033 93.2183C46.0459 93.2183 46.9092 93.0723 47.4932 92.7803C48.0898 92.4883 48.3882 92.082 48.3882 91.5615C48.3882 91.2061 48.2168 90.9204 47.874 90.7046C47.5439 90.5015 47.0044 90.3301 46.2554 90.1904C45.519 90.0635 44.4844 89.9556 43.1514 89.8667C42.5801 90.0698 42.1357 90.3364 41.8184 90.6665C41.501 90.9966 41.3423 91.3394 41.3423 91.6948C41.3423 92.1772 41.6343 92.5518 42.2183 92.8184C42.8022 93.085 43.6973 93.2183 44.9033 93.2183ZM82.437 90.2856C80.8247 90.2856 79.5933 89.835 78.7427 88.9336C77.9048 88.0195 77.4858 86.6357 77.4858 84.7822V76.251H76.9526C76.5972 76.251 76.3369 76.1177 76.1719 75.8511C76.0195 75.5845 75.9434 75.1528 75.9434 74.5562V73.9849C75.9434 73.3882 76.0195 72.9565 76.1719 72.6899C76.3369 72.4233 76.5972 72.29 76.9526 72.29H77.4858L77.9238 69.0718C78.0254 68.3608 78.6348 68.0054 79.752 68.0054H80.8184C81.4023 68.0054 81.8276 68.0942 82.0942 68.272C82.3735 68.4497 82.5132 68.7163 82.5132 69.0718V72.29H84.1699C84.5254 72.29 84.7793 72.4233 84.9316 72.6899C85.0967 72.9565 85.1792 73.3882 85.1792 73.9849V74.5562C85.1792 75.1528 85.0967 75.5845 84.9316 75.8511C84.7793 76.1177 84.5254 76.251 84.1699 76.251H82.5132V84.8394C82.5132 85.3599 82.6021 85.7344 82.7798 85.9629C82.9702 86.1914 83.2812 86.3057 83.7129 86.3057C83.8398 86.3057 84.0112 86.2866 84.2271 86.2485C84.4429 86.1978 84.5762 86.1724 84.627 86.1724C84.8301 86.1724 85.0078 86.3438 85.1602 86.6865C85.3252 87.0166 85.4521 87.3848 85.541 87.791C85.6426 88.1973 85.6934 88.4702 85.6934 88.6099C85.6934 89.7271 84.6079 90.2856 82.437 90.2856ZM90.5303 69.3765C89.8193 69.3765 89.2988 69.2876 88.9688 69.1099C88.6514 68.9321 88.4927 68.6592 88.4927 68.291V65.5679C88.4927 65.1997 88.6577 64.9268 88.9878 64.749C89.3179 64.5586 89.832 64.4634 90.5303 64.4634H91.4634C92.1616 64.4634 92.6758 64.5586 93.0059 64.749C93.3359 64.9268 93.501 65.1997 93.501 65.5679V68.291C93.501 68.6592 93.3359 68.9321 93.0059 69.1099C92.6885 69.2876 92.1743 69.3765 91.4634 69.3765H90.5303ZM90.5303 90.0571C89.1719 90.0571 88.4927 89.7017 88.4927 88.9907V73.2993C88.4927 72.9438 88.6577 72.6772 88.9878 72.4995C89.3179 72.3218 89.832 72.2329 90.5303 72.2329H91.4634C92.1616 72.2329 92.6758 72.3218 93.0059 72.4995C93.3359 72.6772 93.501 72.9438 93.501 73.2993V88.9907C93.501 89.7017 92.8218 90.0571 91.4634 90.0571H90.5303ZM105.422 90.2856C102.54 90.2856 100.401 89.543 99.0044 88.0576C97.6079 86.5596 96.9097 84.2935 96.9097 81.2593C96.9097 78.1997 97.6143 75.8955 99.0234 74.3467C100.433 72.7979 102.629 72.0234 105.612 72.0234C106.463 72.0234 107.32 72.1187 108.183 72.3091C109.059 72.4868 109.783 72.7534 110.354 73.1089C110.938 73.4517 111.23 73.8706 111.23 74.3657C111.23 74.5688 111.116 74.8862 110.887 75.3179C110.671 75.7495 110.417 76.1367 110.125 76.4795C109.846 76.8096 109.611 76.9746 109.421 76.9746C109.332 76.9746 109.135 76.8857 108.831 76.708C108.348 76.4795 107.891 76.3018 107.459 76.1748C107.028 76.0352 106.501 75.9653 105.879 75.9653C104.546 75.9653 103.575 76.3906 102.965 77.2412C102.356 78.0791 102.051 79.374 102.051 81.126C102.051 82.8906 102.337 84.1982 102.908 85.0488C103.492 85.8867 104.419 86.3057 105.688 86.3057C106.387 86.3057 106.996 86.2358 107.517 86.0962C108.037 85.9438 108.532 85.7534 109.002 85.5249C109.091 85.4868 109.199 85.4424 109.326 85.3916C109.453 85.3408 109.548 85.3154 109.611 85.3154C109.84 85.3154 110.087 85.4805 110.354 85.8105C110.633 86.1279 110.868 86.4961 111.059 86.915C111.262 87.334 111.363 87.6577 111.363 87.8862C111.363 88.4702 110.982 88.9399 110.221 89.2954C109.459 89.6509 108.608 89.9048 107.669 90.0571C106.729 90.2095 105.98 90.2856 105.422 90.2856ZM118.562 90.2856C117.686 90.2856 116.816 90.1904 115.953 90C115.089 89.8096 114.372 89.5366 113.801 89.1812C113.242 88.8257 112.963 88.4194 112.963 87.9624C112.963 87.6831 113.064 87.334 113.268 86.915C113.471 86.4961 113.712 86.1343 113.991 85.8296C114.283 85.5122 114.537 85.3535 114.753 85.3535C114.867 85.3535 115.115 85.4424 115.496 85.6201C115.94 85.8232 116.365 85.9883 116.771 86.1152C117.178 86.2422 117.641 86.3057 118.162 86.3057C118.809 86.3057 119.298 86.1851 119.628 85.9438C119.958 85.7026 120.123 85.3472 120.123 84.8774C120.123 84.522 120.021 84.23 119.818 84.0015C119.628 83.7603 119.38 83.5635 119.076 83.4111C118.771 83.2588 118.339 83.0747 117.781 82.8589L117.229 82.6494C116.505 82.3701 115.87 82.0527 115.324 81.6973C114.778 81.3418 114.315 80.8276 113.934 80.1548C113.553 79.4692 113.363 78.606 113.363 77.5649C113.363 76.4097 113.61 75.4194 114.105 74.5942C114.613 73.7563 115.331 73.1216 116.257 72.6899C117.184 72.2456 118.276 72.0234 119.533 72.0234C120.256 72.0234 121.012 72.0933 121.799 72.2329C122.586 72.3726 123.246 72.5884 123.779 72.8804C124.325 73.1724 124.598 73.5405 124.598 73.9849C124.598 74.2388 124.516 74.5815 124.351 75.0132C124.198 75.4448 124.008 75.8257 123.779 76.1558C123.551 76.4858 123.335 76.6509 123.132 76.6509C123.068 76.6509 122.891 76.5938 122.599 76.4795C122.205 76.3145 121.824 76.1875 121.456 76.0986C121.101 75.9971 120.688 75.9463 120.218 75.9463C119.025 75.9463 118.428 76.3398 118.428 77.127C118.428 77.4824 118.536 77.7871 118.752 78.041C118.98 78.2949 119.26 78.5044 119.59 78.6694C119.92 78.8345 120.383 79.0312 120.98 79.2598C121.666 79.5391 122.091 79.7168 122.256 79.793C123.145 80.2373 123.855 80.8276 124.389 81.564C124.935 82.2876 125.208 83.2588 125.208 84.4775C125.208 85.6328 124.947 86.6484 124.427 87.5244C123.906 88.4004 123.145 89.0796 122.142 89.562C121.139 90.0444 119.945 90.2856 118.562 90.2856Z" fill="#4285F4"/>
<path d="M56.5576 90.0571C55.1484 90.0571 54.4438 89.8413 54.4438 89.4097C54.4438 89.1938 54.5518 88.9146 54.7676 88.5718L61.7563 77.6411L55.5483 67.7197C55.3325 67.3262 55.2246 67.0405 55.2246 66.8628C55.2246 66.6724 55.4023 66.52 55.7578 66.4058C56.126 66.2788 56.6655 66.2153 57.3765 66.2153H58.7666C59.8584 66.2153 60.5312 66.4312 60.7852 66.8628L64.6509 73.166L68.707 66.8628C68.8975 66.6089 69.1514 66.4375 69.4688 66.3486C69.7988 66.2598 70.2368 66.2153 70.7827 66.2153H72.0967C73.5186 66.2153 74.2295 66.4312 74.2295 66.8628C74.2295 67.104 74.1216 67.3896 73.9058 67.7197L67.5073 77.7173L74.2676 88.5718C74.4707 88.8892 74.5723 89.1685 74.5723 89.4097C74.5723 89.8413 73.8613 90.0571 72.4395 90.0571H71.1255C70.5796 90.0571 70.1416 90.0127 69.8115 89.9238C69.4814 89.835 69.2466 89.6636 69.1069 89.4097L64.5938 82.1353L59.9092 89.4097C59.7314 89.7017 59.4902 89.8857 59.1855 89.9619C58.8936 90.0254 58.4492 90.0571 57.8525 90.0571H56.5576Z" fill="#2E2BC9"/>
</svg>
